<?xml version="1.0" encoding="utf-8"?>
<!-- Generator: Adobe Illustrator 22.1.0, SVG Export Plug-In . SVG Version: 6.00 Build 0)  -->
<svg version="1.1" id="Layer_1" xmlns="http://www.w3.org/2000/svg" xmlns:xlink="http://www.w3.org/1999/xlink" x="0px" y="0px"
	 viewBox="0 0 1378.9 791.8" style="enable-background:new 0 0 1378.9 791.8;" xml:space="preserve">
<style type="text/css">
	.st0{fill:#FF0000;}
	.st1{fill:none;stroke:#000000;stroke-miterlimit:10;}
</style>
<title>Asset 5</title>
<g id="Layer_1-2">
	<g id="XMLID_1_">
		<g>
			<polygon class="st0" points="1282.5,219.5 1378.5,381.5 1348.5,446.5 1234.5,497.5 1229.5,541.5 1281.5,588.5 1178.5,791.5 
				1143.5,747.5 135.5,748.5 0.5,175.5 52.5,64.5 1.5,0.5 1159.5,0.5 1196.5,42.5 1177.5,66.5 1224.5,185.5 			"/>
		</g>
		<g>
			<line class="st1" x1="0.5" y1="175.5" x2="135.5" y2="748.5"/>
			<line class="st1" x1="0.5" y1="175.5" x2="52.5" y2="64.5"/>
			<line class="st1" x1="52.5" y1="64.5" x2="1.5" y2="0.5"/>
			<line class="st1" x1="1.5" y1="0.5" x2="1159.5" y2="0.5"/>
			<line class="st1" x1="1159.5" y1="0.5" x2="1196.5" y2="42.5"/>
			<line class="st1" x1="1196.5" y1="42.5" x2="1177.5" y2="66.5"/>
			<line class="st1" x1="1177.5" y1="66.5" x2="1224.5" y2="185.5"/>
			<line class="st1" x1="1224.5" y1="185.5" x2="1282.5" y2="219.5"/>
			<line class="st1" x1="1282.5" y1="219.5" x2="1378.5" y2="381.5"/>
			<line class="st1" x1="1378.5" y1="381.5" x2="1348.5" y2="446.5"/>
			<line class="st1" x1="1348.5" y1="446.5" x2="1234.5" y2="497.5"/>
			<line class="st1" x1="1234.5" y1="497.5" x2="1229.5" y2="541.5"/>
			<line class="st1" x1="1229.5" y1="541.5" x2="1281.5" y2="588.5"/>
			<line class="st1" x1="1281.5" y1="588.5" x2="1178.5" y2="791.5"/>
			<line class="st1" x1="135.5" y1="748.5" x2="1143.5" y2="747.5"/>
			<line class="st1" x1="1143.5" y1="747.5" x2="1178.5" y2="791.5"/>
		</g>
	</g>
</g>
</svg>
