<?xml version="1.0" encoding="utf-8"?>
<!-- Generator: Adobe Illustrator 22.1.0, SVG Export Plug-In . SVG Version: 6.00 Build 0)  -->
<svg version="1.1" id="Layer_1" xmlns="http://www.w3.org/2000/svg" xmlns:xlink="http://www.w3.org/1999/xlink" x="0px" y="0px"
	 viewBox="0 0 1205 657" style="enable-background:new 0 0 1205 657;" xml:space="preserve">
<style type="text/css">
	.st0{fill:#FF0000;}
	.st1{fill:none;stroke:#000000;stroke-miterlimit:10;}
</style>
<title>Asset 3</title>
<g id="Layer_1-2">
	<g id="XMLID_1_">
		<g>
			<polygon class="st0" points="1204.5,178.5 1204.5,656.5 1204,656.5 1,656.5 0.5,656.5 0.5,0.5 1080.5,0.5 1095.5,29.5 
				1137.5,14.5 1147.5,46.5 1129.5,80.5 			"/>
		</g>
		<g>
			<line class="st1" x1="1" y1="656.5" x2="1204" y2="656.5"/>
			<line class="st1" x1="0.5" y1="656.5" x2="0.5" y2="0.5"/>
			<line class="st1" x1="0.5" y1="0.5" x2="1080.5" y2="0.5"/>
			<line class="st1" x1="1204.5" y1="656.5" x2="1204.5" y2="178.5"/>
			<line class="st1" x1="1080.5" y1="0.5" x2="1095.5" y2="29.5"/>
			<line class="st1" x1="1137.5" y1="14.5" x2="1095.5" y2="29.5"/>
			<line class="st1" x1="1204.5" y1="178.5" x2="1129.5" y2="80.5"/>
			<line class="st1" x1="1129.5" y1="80.5" x2="1147.5" y2="46.5"/>
			<line class="st1" x1="1137.5" y1="14.5" x2="1147.5" y2="46.5"/>
		</g>
	</g>
</g>
</svg>
