<?xml version="1.0" encoding="utf-8"?>
<!-- Generator: Adobe Illustrator 22.1.0, SVG Export Plug-In . SVG Version: 6.00 Build 0)  -->
<svg version="1.1" id="Layer_1" xmlns="http://www.w3.org/2000/svg" xmlns:xlink="http://www.w3.org/1999/xlink" x="0px" y="0px"
	 viewBox="0 0 913.7 1089" style="enable-background:new 0 0 913.7 1089;" xml:space="preserve">
<style type="text/css">
	.st0{fill:#FF0000;}
	.st1{fill:none;stroke:#000000;stroke-miterlimit:10;}
</style>
<title>Asset 8</title>
<g id="Layer_1-2">
	<g id="XMLID_1_">
		<g>
			<polygon class="st0" points="913.5,197.5 606.5,379.5 609.5,544.5 526.5,604.5 548.5,636.5 549.5,802.5 806.5,963.5 
				808.5,1088.5 54.5,1088.5 54.5,744 14.5,727 0.5,675 44.5,650.5 10.5,72.5 239.5,84.5 236.5,0.5 268.5,4.5 297.5,134.5 
				433.5,130.5 758.5,194.5 			"/>
		</g>
		<g>
			<line class="st1" x1="54.5" y1="1088.5" x2="808.5" y2="1088.5"/>
			<polyline class="st1" points="54.5,1089 54.5,1088.5 54.5,744 			"/>
			<line class="st1" x1="54.5" y1="744" x2="14.5" y2="727"/>
			<line class="st1" x1="14.5" y1="727" x2="0.5" y2="675"/>
			<line class="st1" x1="0.5" y1="675" x2="44.5" y2="650.5"/>
			<line class="st1" x1="44.5" y1="650.5" x2="10.5" y2="72.5"/>
			<line class="st1" x1="10.5" y1="72.5" x2="239.5" y2="84.5"/>
			<line class="st1" x1="239.5" y1="84.5" x2="236.5" y2="0.5"/>
			<line class="st1" x1="236.5" y1="0.5" x2="268.5" y2="4.5"/>
			<line class="st1" x1="268.5" y1="4.5" x2="297.5" y2="134.5"/>
			<line class="st1" x1="297.5" y1="134.5" x2="433.5" y2="130.5"/>
			<line class="st1" x1="433.5" y1="130.5" x2="758.5" y2="194.5"/>
			<line class="st1" x1="758.5" y1="194.5" x2="913.5" y2="197.5"/>
			<line class="st1" x1="913.5" y1="197.5" x2="606.5" y2="379.5"/>
			<line class="st1" x1="606.5" y1="379.5" x2="609.5" y2="544.5"/>
			<line class="st1" x1="609.5" y1="544.5" x2="526.5" y2="604.5"/>
			<line class="st1" x1="526.5" y1="604.5" x2="548.5" y2="636.5"/>
			<line class="st1" x1="548.5" y1="636.5" x2="549.5" y2="802.5"/>
			<line class="st1" x1="549.5" y1="802.5" x2="806.5" y2="963.5"/>
			<line class="st1" x1="806.5" y1="963.5" x2="808.5" y2="1088.5"/>
		</g>
	</g>
</g>
</svg>
