<?xml version="1.0" encoding="utf-8"?>
<!-- Generator: Adobe Illustrator 22.1.0, SVG Export Plug-In . SVG Version: 6.00 Build 0)  -->
<svg version="1.1" id="Layer_1" xmlns="http://www.w3.org/2000/svg" xmlns:xlink="http://www.w3.org/1999/xlink" x="0px" y="0px"
	 viewBox="0 0 1243.9 1018.6" style="enable-background:new 0 0 1243.9 1018.6;" xml:space="preserve">
<style type="text/css">
	.st0{fill:#FF0000;}
	.st1{fill:none;stroke:#000000;stroke-width:0.5;stroke-linecap:round;stroke-linejoin:round;}
	.st2{fill:none;stroke:#000000;stroke-miterlimit:10;}
</style>
<g id="XMLID_1_">
	<g>
		<polygon class="st0" points="1221.3,717.9 1237.9,774 1224.2,831 1196.9,845.5 1221.3,995.4 1086.6,992.5 1123.7,933.4 
			1078.8,911.8 1078.8,911.3 210.9,912.3 210.9,282.7 24.4,11 848.4,11 894.3,46.8 901.1,134.8 1006.5,298.2 1013.4,351.4 
			1029,350.4 1062.2,334 1096.3,358.2 1045.6,456.8 1169.6,597 1165.7,676.3 1201.8,733.4 		"/>
	</g>
	<g>
		<line class="st1" x1="210.9" y1="912.3" x2="210.9" y2="282.7"/>
		<line class="st1" x1="24.4" y1="11" x2="210.9" y2="282.7"/>
		<line class="st1" x1="24.4" y1="11" x2="848.4" y2="11"/>
		<line class="st1" x1="848.4" y1="11" x2="894.3" y2="46.8"/>
		<line class="st1" x1="894.3" y1="46.8" x2="901.1" y2="134.8"/>
		<line class="st1" x1="901.1" y1="134.8" x2="1006.5" y2="298.2"/>
		<line class="st1" x1="1006.5" y1="298.2" x2="1013.4" y2="351.4"/>
		<line class="st1" x1="1013.4" y1="351.4" x2="1029" y2="350.4"/>
		<line class="st1" x1="1029" y1="350.4" x2="1062.2" y2="334"/>
		<line class="st1" x1="1062.2" y1="334" x2="1096.3" y2="358.2"/>
		<line class="st1" x1="1096.3" y1="358.2" x2="1045.6" y2="456.8"/>
		<line class="st1" x1="1045.6" y1="456.8" x2="1169.6" y2="597"/>
		<line class="st1" x1="1169.6" y1="597" x2="1165.7" y2="676.3"/>
		<line class="st1" x1="1165.7" y1="676.3" x2="1201.8" y2="733.4"/>
		<line class="st1" x1="1201.8" y1="733.4" x2="1221.3" y2="717.9"/>
		<line class="st1" x1="1221.3" y1="717.9" x2="1237.9" y2="774"/>
		<line class="st1" x1="1237.9" y1="774" x2="1224.2" y2="831"/>
		<line class="st1" x1="1224.2" y1="831" x2="1196.9" y2="845.5"/>
		<line class="st1" x1="1196.9" y1="845.5" x2="1221.3" y2="995.4"/>
		<line class="st1" x1="1086.6" y1="992.5" x2="1123.7" y2="933.4"/>
		<line class="st1" x1="1123.7" y1="933.4" x2="1078.8" y2="911.8"/>
		<line class="st1" x1="210.9" y1="912.3" x2="1078.8" y2="911.3"/>
		<line class="st2" x1="1086.6" y1="992.5" x2="1221.3" y2="995.4"/>
	</g>
</g>
</svg>
