<?xml version="1.0" encoding="utf-8"?>
<!-- Generator: Adobe Illustrator 22.1.0, SVG Export Plug-In . SVG Version: 6.00 Build 0)  -->
<svg version="1.1" id="Layer_1" xmlns="http://www.w3.org/2000/svg" xmlns:xlink="http://www.w3.org/1999/xlink" x="0px" y="0px"
	 viewBox="0 0 1382.2 626" style="enable-background:new 0 0 1382.2 626;" xml:space="preserve">
<style type="text/css">
	.st0{fill:#FF0000;}
	.st1{fill:none;stroke:#000000;stroke-miterlimit:10;}
</style>
<title>Asset 2</title>
<g id="Layer_1-2">
	<g id="XMLID_1_">
		<g>
			<polygon class="st0" points="1270.8,394.6 1287,441.5 1287.1,441.5 1288,491.5 1287.8,491.9 1317,587.5 1317,588 1382,625.5 
				392,625.5 392,383.5 391.5,383.5 1.5,383.5 0.5,382.5 2.5,0.5 3,0.5 920,0.5 973,32.5 1036,11.5 1097,22.5 1097.5,22.6 
				1104,41.5 1104,41.5 1168.8,66.4 1175,95.5 1175.2,95.9 1212.7,142.1 1221,201.5 1220.8,201.6 1255,295.5 1255.3,295.7 
				1271,394.5 			"/>
		</g>
		<g>
			<line class="st1" x1="2.5" y1="0.5" x2="0.5" y2="382.5"/>
			<line class="st1" x1="1.5" y1="383.5" x2="391.5" y2="383.5"/>
			<line class="st1" x1="392" y1="383.5" x2="392" y2="625.5"/>
			<line class="st1" x1="392" y1="625.5" x2="1382" y2="625.5"/>
			<line class="st1" x1="1382" y1="625.5" x2="1317" y2="588"/>
			<line class="st1" x1="1317" y1="587.5" x2="1287.8" y2="491.9"/>
			<line class="st1" x1="1288" y1="491.5" x2="1287.1" y2="441.5"/>
			<polyline class="st1" points="1287,441.5 1270.8,394.6 1270.7,394.2 			"/>
			<line class="st1" x1="1271" y1="394.5" x2="1255.3" y2="295.7"/>
			<polyline class="st1" points="1255,295.5 1220.8,201.6 1220.8,201.5 			"/>
			<line class="st1" x1="1221" y1="201.5" x2="1212.7" y2="142.1"/>
			<polyline class="st1" points="1213,142.5 1212.7,142.1 1175.2,95.9 			"/>
			<polyline class="st1" points="1175,95.5 1168.8,66.4 1168.8,66.2 			"/>
			<polyline class="st1" points="1169,66.5 1168.8,66.4 1104,41.5 1103.6,41.4 			"/>
			<line class="st1" x1="1104" y1="41.5" x2="1097.5" y2="22.6"/>
			<line class="st1" x1="3" y1="0.5" x2="920" y2="0.5"/>
			<line class="st1" x1="1036" y1="11.5" x2="1097" y2="22.5"/>
			<line class="st1" x1="1036" y1="11.5" x2="973" y2="32.5"/>
			<line class="st1" x1="920" y1="0.5" x2="973" y2="32.5"/>
		</g>
	</g>
</g>
</svg>
