<?xml version="1.0" encoding="utf-8"?>
<!-- Generator: Adobe Illustrator 22.1.0, SVG Export Plug-In . SVG Version: 6.00 Build 0)  -->
<svg version="1.1" id="Layer_1" xmlns="http://www.w3.org/2000/svg" xmlns:xlink="http://www.w3.org/1999/xlink" x="0px" y="0px"
	 viewBox="0 0 1517 864.9" style="enable-background:new 0 0 1517 864.9;" xml:space="preserve">
<style type="text/css">
	.st0{fill:#FF0000;}
	.st1{fill:none;stroke:#000000;stroke-miterlimit:10;}
</style>
<title>Asset 6</title>
<g id="Layer_1-2">
	<g id="XMLID_1_">
		<g>
			<polygon class="st0" points="1493.5,637.5 1516.5,684.5 1469.5,796.5 1500.5,864.5 1418.5,796.5 1250.5,796.5 1184.5,753.5 
				1.5,754.5 0.5,0.5 1485.5,0.5 1418.5,66.5 1459.5,105.5 1502.5,105.5 1511.5,576.5 			"/>
		</g>
		<g>
			<line class="st1" x1="1.5" y1="754.5" x2="1184.5" y2="753.5"/>
			<line class="st1" x1="1184.5" y1="753.5" x2="1250.5" y2="796.5"/>
			<line class="st1" x1="1250.5" y1="796.5" x2="1418.5" y2="796.5"/>
			<line class="st1" x1="1418.5" y1="796.5" x2="1500.5" y2="864.5"/>
			<line class="st1" x1="1500.5" y1="864.5" x2="1469.5" y2="796.5"/>
			<line class="st1" x1="1469.5" y1="796.5" x2="1516.5" y2="684.5"/>
			<line class="st1" x1="1516.5" y1="684.5" x2="1493.5" y2="637.5"/>
			<line class="st1" x1="1493.5" y1="637.5" x2="1511.5" y2="576.5"/>
			<line class="st1" x1="1511.5" y1="576.5" x2="1502.5" y2="105.5"/>
			<line class="st1" x1="1502.5" y1="105.5" x2="1459.5" y2="105.5"/>
			<line class="st1" x1="1459.5" y1="105.5" x2="1418.5" y2="66.5"/>
			<line class="st1" x1="1418.5" y1="66.5" x2="1485.5" y2="0.5"/>
			<line class="st1" x1="1485.5" y1="0.5" x2="0.5" y2="0.5"/>
			<line class="st1" x1="1.5" y1="754.5" x2="0.5" y2="0.5"/>
		</g>
	</g>
</g>
</svg>
